<?xml version="1.0" encoding="utf-8"?>
<!-- Generator: Adobe Illustrator 23.0.6, SVG Export Plug-In . SVG Version: 6.00 Build 0)  -->
<svg version="1.1" id="Capa_1" xmlns="http://www.w3.org/2000/svg" xmlns:xlink="http://www.w3.org/1999/xlink" x="0px" y="0px"
	 viewBox="0 0 3401.57 566.93" style="enable-background:new 0 0 3401.57 566.93;" xml:space="preserve">
<style type="text/css">
	.st0{fill:#633737;}
	.st1{fill:#FFFFFF;}
	.st2{fill:#2D777F;}
	.st3{fill:#B05CC4;}
	.st4{fill:#315627;}
	.st5{fill:#E59945;}
	.st6{fill:#9C68B5;}
	.st7{fill:#BC7793;}
	.st8{fill:#C60C0C;}
</style>
<g>
	<rect x="1.28" y="110.96" class="st0" width="1176" height="172"/>
	<path class="st1" d="M1176.79,111.46v171H1.78v-171H1176.79 M1177.79,110.46H0.79v173h1177V110.46L1177.79,110.46z"/>
</g>
<g>
	<rect x="1102.29" y="107.96" class="st2" width="330" height="351"/>
	<path class="st1" d="M1431.79,108.46v350h-329v-350H1431.79 M1432.79,107.46h-331v352h331V107.46L1432.79,107.46z"/>
</g>
<g>
	<rect x="2043.29" y="141.96" class="st3" width="63" height="176"/>
	<path class="st1" d="M2105.78,142.46v175h-62v-175H2105.78 M2106.78,141.46h-64v177h64V141.46L2106.78,141.46z"/>
</g>
<g>
	<rect x="2686.28" y="141.96" class="st4" width="103" height="235"/>
	<path class="st1" d="M2788.78,142.46v234h-102v-234H2788.78 M2789.78,141.46h-104v236h104V141.46L2789.78,141.46z"/>
</g>
<g>
	<rect x="2996.28" y="300.96" class="st5" width="11" height="122"/>
	<path class="st1" d="M3006.78,301.46v121h-10v-121H3006.78 M3007.78,300.46h-12v123h12V300.46L3007.78,300.46z"/>
</g>
<g>
	<rect x="1770.29" y="283.96" class="st6" width="109" height="282"/>
	<path class="st1" d="M1878.79,284.46v281h-108v-281H1878.79 M1879.79,283.46h-110v283h110V283.46L1879.79,283.46z"/>
</g>
<g>
	<rect x="2383.28" y="229.96" class="st7" width="75" height="147"/>
	<path class="st1" d="M2457.78,230.46v146h-74v-146H2457.78 M2458.78,229.46h-76v148h76V229.46L2458.78,229.46z"/>
</g>
<g>
	<rect x="1378.29" y="300.96" class="st8" width="1273" height="122"/>
	<path class="st1" d="M2650.78,301.46v121h-1272v-121H2650.78 M2651.78,300.46h-1274v123h1274V300.46L2651.78,300.46z"/>
</g>
</svg>
